<svg id="svg" version="1.1" xmlns="http://www.w3.org/2000/svg" xmlns:xlink="http://www.w3.org/1999/xlink" width="400" height="400" viewBox="0, 0, 400,400"><g id="svgg"><path id="path0" d="M204.492 1.895 C 202.103 2.712,207.385 -0.290,149.023 33.425 C 122.168 48.939,86.572 69.480,69.922 79.071 C 37.004 98.032,36.547 98.338,35.597 102.113 C 34.852 105.069,34.614 109.572,35.100 111.505 C 37.058 119.291,34.284 117.200,69.922 137.756 C 86.572 147.360,119.443 166.331,142.969 179.915 L 185.742 204.612 185.841 288.676 C 185.932 366.708,185.893 372.723,185.294 372.493 C 184.693 372.262,126.932 338.966,75.586 309.252 C 47.313 292.890,48.207 293.359,45.324 293.359 C 36.927 293.359,32.471 302.966,38.012 309.121 C 38.859 310.062,48.760 315.993,68.945 327.652 C 135.032 365.824,188.183 396.432,189.819 397.260 C 193.783 399.266,200.637 397.561,203.121 393.951 C 205.215 390.907,205.121 395.950,204.998 292.969 L 204.883 196.680 204.042 195.117 C 202.235 191.759,208.538 195.506,78.711 120.620 C 67.539 114.176,58.257 108.771,58.084 108.610 C 57.763 108.311,65.875 103.581,142.188 59.565 C 165.928 45.872,190.310 31.786,196.369 28.263 L 207.387 21.857 250.471 46.717 C 274.167 60.389,306.186 78.875,321.624 87.796 L 349.693 104.017 352.292 104.203 C 361.440 104.857,366.167 93.027,358.984 87.455 C 358.232 86.872,344.082 78.582,327.539 69.033 C 310.996 59.484,278.735 40.861,255.849 27.649 C 203.651 -2.485,209.185 0.290,204.492 1.895 " stroke="none" fill="#3bb4fc" fill-rule="evenodd"></path><path id="path1" d="M355.078 108.570 C 352.911 109.236,347.541 112.219,323.242 126.258 C 284.074 148.886,250.253 168.421,241.211 173.639 C 207.993 192.807,209.660 191.613,208.354 197.167 C 207.540 200.623,207.558 388.092,208.372 390.796 C 209.832 395.650,213.059 397.873,218.558 397.814 C 223.213 397.764,220.096 399.390,262.305 375.003 C 282.500 363.335,312.822 345.841,329.688 336.127 C 362.475 317.243,364.585 315.849,366.927 311.523 L 367.773 309.961 367.875 213.492 C 367.990 104.624,368.268 114.248,364.903 110.888 C 362.458 108.446,358.513 107.515,355.078 108.570 M348.731 218.759 L 348.633 302.906 324.219 316.999 C 242.707 364.052,227.765 372.656,227.565 372.656 C 227.443 372.656,227.344 334.694,227.344 288.296 L 227.344 203.936 231.934 201.238 C 234.458 199.754,239.775 196.673,243.750 194.391 C 247.725 192.108,272.861 177.604,299.609 162.159 C 326.357 146.714,348.374 134.197,348.536 134.344 C 348.698 134.491,348.786 172.478,348.731 218.759 " stroke="none" fill="#040404" fill-rule="evenodd"></path></g></svg>